<svg width="9" height="6" viewBox="0 0 9 6" fill="none" xmlns="http://www.w3.org/2000/svg">
<path d="M8.34506 0.5607L4.76666 5.2997C4.7014 5.38611 4.61699 5.4562 4.52006 5.50446C4.42314 5.55272 4.31633 5.57784 4.20806 5.57784C4.09978 5.57784 3.99298 5.55272 3.89605 5.50446C3.79912 5.4562 3.71471 5.38611 3.64946 5.2997L0.0710558 0.5614C0.031688 0.509454 0.00760745 0.447547 0.00152668 0.382653C-0.0045541 0.317759 0.0076065 0.252456 0.0366387 0.194101C0.0656708 0.135745 0.110421 0.0866561 0.165848 0.0523627C0.221276 0.0180692 0.285177 -6.58297e-05 0.350356 3.96405e-07H8.06506C8.13017 -9.75916e-05 8.19403 0.0179726 8.24944 0.0521795C8.30485 0.0863864 8.34962 0.135373 8.37871 0.193631C8.4078 0.251889 8.42007 0.317109 8.41412 0.381955C8.40818 0.446801 8.38426 0.508704 8.34506 0.5607Z" fill="#7092BB"/>
</svg>
