<svg width="73" height="57" viewBox="0 0 73 57" fill="none" xmlns="http://www.w3.org/2000/svg">
<g opacity="0.5">
<ellipse cx="36" cy="52.5" rx="14" ry="4.5" fill="#D1E6FF"/>
<path d="M49.75 52.5C49.75 53.0079 49.4296 53.535 48.7485 54.0526C48.0714 54.5672 47.0757 55.0413 45.823 55.444C43.3203 56.2484 39.8473 56.75 36 56.75C32.1527 56.75 28.6797 56.2484 26.177 55.444C24.9243 55.0413 23.9286 54.5672 23.2515 54.0526C22.5704 53.535 22.25 53.0079 22.25 52.5C22.25 51.9921 22.5704 51.465 23.2515 50.9474C23.9286 50.4328 24.9243 49.9587 26.177 49.556C28.6797 48.7516 32.1527 48.25 36 48.25C39.8473 48.25 43.3203 48.7516 45.823 49.556C47.0757 49.9587 48.0714 50.4328 48.7485 50.9474C49.4296 51.465 49.75 51.9921 49.75 52.5Z" stroke="#0060D8" stroke-opacity="0.15" stroke-width="0.5"/>
</g>
<ellipse cx="36.5" cy="44" rx="22.5" ry="7" fill="url(#paint0_linear_97_272)"/>
<path d="M58.65 44C58.65 44.8026 58.1264 45.6322 57.0245 46.4428C55.9296 47.2481 54.3228 47.9881 52.3059 48.6155C48.2763 49.8692 42.688 50.65 36.5 50.65C30.312 50.65 24.7237 49.8692 20.6941 48.6155C18.6772 47.9881 17.0704 47.2481 15.9755 46.4428C14.8736 45.6322 14.35 44.8026 14.35 44C14.35 43.1974 14.8736 42.3678 15.9755 41.5572C17.0704 40.7519 18.6772 40.0119 20.6941 39.3845C24.7237 38.1308 30.312 37.35 36.5 37.35C42.688 37.35 48.2763 38.1308 52.3059 39.3845C54.3228 40.0119 55.9296 40.7519 57.0245 41.5572C58.1264 42.3678 58.65 43.1974 58.65 44Z" stroke="url(#paint1_linear_97_272)" stroke-opacity="0.14" stroke-width="0.7"/>
<ellipse cx="36.5" cy="34" rx="26.5" ry="9" fill="url(#paint2_linear_97_272)"/>
<path d="M62.65 34C62.65 35.0923 61.9987 36.1861 60.6984 37.2303C59.4012 38.2718 57.5028 39.2253 55.1258 40.0326C50.3753 41.6459 43.7901 42.65 36.5 42.65C29.2099 42.65 22.6247 41.6459 17.8742 40.0326C15.4972 39.2253 13.5988 38.2718 12.3016 37.2303C11.0013 36.1861 10.35 35.0923 10.35 34C10.35 32.9077 11.0013 31.8139 12.3016 30.7697C13.5988 29.7282 15.4972 28.7747 17.8742 27.9674C22.6247 26.3541 29.2099 25.35 36.5 25.35C43.7901 25.35 50.3753 26.3541 55.1258 27.9674C57.5028 28.7747 59.4012 29.7282 60.6984 30.7697C61.9987 31.8139 62.65 32.9077 62.65 34Z" stroke="url(#paint3_linear_97_272)" stroke-opacity="0.36" stroke-width="0.7"/>
<path d="M73 0H0L10 34C10 38.9706 21.8645 43 36.5 43C51.1355 43 63 38.9706 63 34L73 0Z" fill="url(#paint4_linear_97_272)" fill-opacity="0.25"/>
<path d="M30.2708 23.6928H34.875C35.222 23.6928 35.5569 23.8202 35.8162 24.0508C36.0755 24.2813 36.2412 24.5991 36.2818 24.9437L36.2917 25.1094V29.7136C36.2917 30.892 35.9459 32.0444 35.2972 33.0282C34.6484 34.0119 33.7253 34.7837 32.6422 35.2478C31.559 35.7119 30.3635 35.848 29.2038 35.6391C28.0441 35.4303 26.9711 34.8857 26.1179 34.0729C25.2647 33.2601 24.6688 32.2148 24.404 31.0666C24.1392 29.9184 24.2171 28.7176 24.6282 27.6133C25.0393 26.5089 25.7654 25.5495 26.7165 24.8538C27.6676 24.1582 28.802 23.757 29.979 23.6998L30.2708 23.6928ZM43.7079 23.6928C44.8987 23.6928 46.0628 24.0459 47.0529 24.7074C48.043 25.369 48.8147 26.3093 49.2704 27.4095C49.7261 28.5097 49.8454 29.7203 49.6131 30.8882C49.3807 32.0561 48.8073 33.1289 47.9653 33.971C47.1233 34.813 46.0504 35.3864 44.8825 35.6187C43.7146 35.851 42.504 35.7318 41.4038 35.2761C40.3037 34.8204 39.3634 34.0487 38.7018 33.0586C38.0402 32.0685 37.6871 30.9044 37.6871 29.7136V25.1094C37.6871 24.7337 37.8363 24.3734 38.102 24.1077C38.3677 23.842 38.728 23.6928 39.1037 23.6928H43.7079ZM30.2708 10.25C31.0615 10.25 31.8444 10.4057 32.5749 10.7083C33.3054 11.0109 33.9691 11.4544 34.5282 12.0135C35.0873 12.5725 35.5308 13.2363 35.8334 13.9668C36.1359 14.6972 36.2917 15.4802 36.2917 16.2708V20.875C36.2917 21.2507 36.1424 21.6111 35.8767 21.8767C35.6111 22.1424 35.2507 22.2917 34.875 22.2917H30.2708C28.674 22.2917 27.1426 21.6573 26.0135 20.5282C24.8843 19.3991 24.25 17.8677 24.25 16.2708C24.25 14.674 24.8843 13.1426 26.0135 12.0135C27.1426 10.8843 28.674 10.25 30.2708 10.25ZM43.7079 10.25C45.2794 10.25 46.7887 10.8645 47.9133 11.9622C49.0379 13.0599 49.6887 14.5538 49.7268 16.1249C49.7649 17.6959 49.1873 19.2196 48.1172 20.3705C47.0471 21.5215 45.5694 22.2084 43.9997 22.2846L43.7079 22.2917H39.1037C38.7565 22.292 38.4213 22.1647 38.1617 21.9341C37.9021 21.7035 37.7362 21.3856 37.6956 21.0408L37.6871 20.875V16.2708C37.6871 15.4802 37.8428 14.6972 38.1454 13.9668C38.448 13.2363 38.8915 12.5725 39.4505 12.0135C40.0096 11.4544 40.6734 11.0109 41.4038 10.7083C42.1343 10.4057 42.9172 10.25 43.7079 10.25Z" fill="url(#paint5_linear_97_272)"/>
<defs>
<linearGradient id="paint0_linear_97_272" x1="37.5" y1="51" x2="37.5" y2="39.5" gradientUnits="userSpaceOnUse">
<stop stop-color="#E1EEFF"/>
<stop offset="1" stop-color="#E1EEFF" stop-opacity="0.4"/>
</linearGradient>
<linearGradient id="paint1_linear_97_272" x1="37.5" y1="51" x2="37.5" y2="37" gradientUnits="userSpaceOnUse">
<stop stop-color="#0060D8"/>
<stop offset="1" stop-color="#0060D8" stop-opacity="0.1"/>
</linearGradient>
<linearGradient id="paint2_linear_97_272" x1="36.5" y1="25" x2="36.5" y2="43" gradientUnits="userSpaceOnUse">
<stop stop-color="#EBF4FF"/>
<stop offset="1" stop-color="#D1E6FF"/>
</linearGradient>
<linearGradient id="paint3_linear_97_272" x1="36.5" y1="25" x2="36.5" y2="43" gradientUnits="userSpaceOnUse">
<stop stop-color="#0060D8" stop-opacity="0"/>
<stop offset="1" stop-color="#0060D8"/>
</linearGradient>
<linearGradient id="paint4_linear_97_272" x1="36.5" y1="0" x2="36.5" y2="43" gradientUnits="userSpaceOnUse">
<stop stop-color="#8DE1FF" stop-opacity="0"/>
<stop offset="1" stop-color="#8DE1FF"/>
</linearGradient>
<linearGradient id="paint5_linear_97_272" x1="36.9894" y1="10.25" x2="36.9894" y2="35.7344" gradientUnits="userSpaceOnUse">
<stop stop-color="#97C5FF"/>
<stop offset="1" stop-color="#0F7AFF"/>
</linearGradient>
</defs>
</svg>
