<svg width="26" height="26" viewBox="0 0 26 26" fill="none" xmlns="http://www.w3.org/2000/svg">
<path d="M12.5564 2.74854C7.91475 2.74854 4.15186 6.51143 4.15186 11.1531C4.15186 15.7947 12.5564 23.4447 12.5564 23.4447C12.5564 23.4447 20.961 15.795 20.961 11.1531C20.961 6.51143 17.1981 2.74854 12.5564 2.74854ZM15.6147 18.0332C14.4853 19.3751 13.3443 20.554 12.5564 21.334C11.7685 20.554 10.6275 19.3751 9.4981 18.0332C8.34182 16.6593 7.42674 15.3895 6.77826 14.2596C5.86648 12.6712 5.67529 11.6937 5.67529 11.1531C5.67529 10.2235 5.85709 9.32242 6.21535 8.47514C6.56193 7.65578 7.05832 6.91996 7.6908 6.28748C8.32328 5.655 9.05935 5.15861 9.87846 4.81203C10.7257 4.45352 11.6269 4.27197 12.5564 4.27197C13.486 4.27197 14.3871 4.45377 15.2344 4.81203C16.0537 5.15861 16.7895 5.655 17.422 6.28748C18.0545 6.91996 18.5509 7.65604 18.8975 8.47514C19.256 9.32242 19.4375 10.2235 19.4375 11.1531C19.4375 11.6934 19.2461 12.6712 18.3345 14.2596C17.6861 15.3898 16.771 16.6593 15.6147 18.0332Z" fill="#0060D8"/>
<path d="M12.5564 7.07544C10.4919 7.07544 8.81836 8.74894 8.81836 10.8134C8.81836 12.878 10.4919 14.5515 12.5564 14.5515C14.6209 14.5515 16.2944 12.878 16.2944 10.8134C16.2944 8.74894 14.6209 7.07544 12.5564 7.07544ZM12.5564 13.028C11.3353 13.028 10.3418 12.0345 10.3418 10.8134C10.3418 9.59241 11.3353 8.59888 12.5564 8.59888C13.7774 8.59888 14.7709 9.59241 14.7709 10.8134C14.7709 12.0345 13.7774 13.028 12.5564 13.028Z" fill="#0060D8"/>
</svg>
