<svg width="73" height="60" viewBox="0 0 73 60" fill="none" xmlns="http://www.w3.org/2000/svg">
<g opacity="0.5">
<ellipse cx="36" cy="55.5" rx="14" ry="4.5" fill="#D1E6FF"/>
<path d="M49.75 55.5C49.75 56.0079 49.4296 56.535 48.7485 57.0526C48.0714 57.5672 47.0757 58.0413 45.823 58.444C43.3203 59.2484 39.8473 59.75 36 59.75C32.1527 59.75 28.6797 59.2484 26.177 58.444C24.9243 58.0413 23.9286 57.5672 23.2515 57.0526C22.5704 56.535 22.25 56.0079 22.25 55.5C22.25 54.9921 22.5704 54.465 23.2515 53.9474C23.9286 53.4328 24.9243 52.9587 26.177 52.556C28.6797 51.7516 32.1527 51.25 36 51.25C39.8473 51.25 43.3203 51.7516 45.823 52.556C47.0757 52.9587 48.0714 53.4328 48.7485 53.9474C49.4296 54.465 49.75 54.9921 49.75 55.5Z" stroke="#0060D8" stroke-opacity="0.15" stroke-width="0.5"/>
</g>
<ellipse cx="36.5" cy="47" rx="22.5" ry="7" fill="url(#paint0_linear_97_259)"/>
<path d="M58.65 47C58.65 47.8026 58.1264 48.6322 57.0245 49.4428C55.9296 50.2481 54.3228 50.9881 52.3059 51.6155C48.2763 52.8692 42.688 53.65 36.5 53.65C30.312 53.65 24.7237 52.8692 20.6941 51.6155C18.6772 50.9881 17.0704 50.2481 15.9755 49.4428C14.8736 48.6322 14.35 47.8026 14.35 47C14.35 46.1974 14.8736 45.3678 15.9755 44.5572C17.0704 43.7519 18.6772 43.0119 20.6941 42.3845C24.7237 41.1308 30.312 40.35 36.5 40.35C42.688 40.35 48.2763 41.1308 52.3059 42.3845C54.3228 43.0119 55.9296 43.7519 57.0245 44.5572C58.1264 45.3678 58.65 46.1974 58.65 47Z" stroke="url(#paint1_linear_97_259)" stroke-opacity="0.14" stroke-width="0.7"/>
<ellipse cx="36.5" cy="37" rx="26.5" ry="9" fill="url(#paint2_linear_97_259)"/>
<path d="M62.65 37C62.65 38.0923 61.9987 39.1861 60.6984 40.2303C59.4012 41.2718 57.5028 42.2253 55.1258 43.0326C50.3753 44.6459 43.7901 45.65 36.5 45.65C29.2099 45.65 22.6247 44.6459 17.8742 43.0326C15.4972 42.2253 13.5988 41.2718 12.3016 40.2303C11.0013 39.1861 10.35 38.0923 10.35 37C10.35 35.9077 11.0013 34.8139 12.3016 33.7697C13.5988 32.7282 15.4972 31.7747 17.8742 30.9674C22.6247 29.3541 29.2099 28.35 36.5 28.35C43.7901 28.35 50.3753 29.3541 55.1258 30.9674C57.5028 31.7747 59.4012 32.7282 60.6984 33.7697C61.9987 34.8139 62.65 35.9077 62.65 37Z" stroke="url(#paint3_linear_97_259)" stroke-opacity="0.36" stroke-width="0.7"/>
<path d="M73 3H0L10 37C10 41.9706 21.8645 46 36.5 46C51.1355 46 63 41.9706 63 37L73 3Z" fill="url(#paint4_linear_97_259)" fill-opacity="0.25"/>
<path fill-rule="evenodd" clip-rule="evenodd" d="M35.9556 2.31519C37.2276 2.31519 38.2812 3.23488 38.4736 4.4373C37.6579 4.28362 36.8163 4.20372 35.9556 4.20372C35.095 4.20372 34.2534 4.28362 33.4376 4.4373C33.6301 3.23488 34.6838 2.31519 35.9556 2.31519ZM35.9557 5.46268C29.0023 5.46268 23.3657 11.0987 23.3657 18.0527C23.3657 25.0054 29.0023 30.6426 35.9557 30.6426C42.909 30.6426 48.5456 25.0054 48.5456 18.0527C48.5456 11.0987 42.909 5.46268 35.9557 5.46268ZM35.9557 23.7181C32.8267 23.7181 30.2902 21.1817 30.2902 18.0527C30.2902 14.9236 32.8267 12.3872 35.9557 12.3872C39.0847 12.3872 41.6211 14.9236 41.6211 18.0527C41.6211 21.1817 39.0847 23.7181 35.9557 23.7181ZM31.6875 31.1922C30.7912 32.2286 28.8947 34.4196 28.4017 34.9643C27.7519 35.6823 30.6123 35.6848 35.9102 35.6848C41.2081 35.6848 44.0684 35.6823 43.4181 34.9643C42.9214 34.4159 40.9984 32.1942 40.1113 31.1676C38.7841 31.6422 37.3548 31.9016 35.8641 31.9016C34.4004 31.9016 32.9944 31.6508 31.6875 31.1922Z" fill="url(#paint5_linear_97_259)"/>
<defs>
<linearGradient id="paint0_linear_97_259" x1="37.5" y1="54" x2="37.5" y2="42.5" gradientUnits="userSpaceOnUse">
<stop stop-color="#E1EEFF"/>
<stop offset="1" stop-color="#E1EEFF" stop-opacity="0.4"/>
</linearGradient>
<linearGradient id="paint1_linear_97_259" x1="37.5" y1="54" x2="37.5" y2="40" gradientUnits="userSpaceOnUse">
<stop stop-color="#0060D8"/>
<stop offset="1" stop-color="#0060D8" stop-opacity="0.1"/>
</linearGradient>
<linearGradient id="paint2_linear_97_259" x1="36.5" y1="28" x2="36.5" y2="46" gradientUnits="userSpaceOnUse">
<stop stop-color="#EBF4FF"/>
<stop offset="1" stop-color="#D1E6FF"/>
</linearGradient>
<linearGradient id="paint3_linear_97_259" x1="36.5" y1="28" x2="36.5" y2="46" gradientUnits="userSpaceOnUse">
<stop stop-color="#0060D8" stop-opacity="0"/>
<stop offset="1" stop-color="#0060D8"/>
</linearGradient>
<linearGradient id="paint4_linear_97_259" x1="36.5" y1="3" x2="36.5" y2="46" gradientUnits="userSpaceOnUse">
<stop stop-color="#8DE1FF" stop-opacity="0"/>
<stop offset="1" stop-color="#8DE1FF"/>
</linearGradient>
<linearGradient id="paint5_linear_97_259" x1="35.9557" y1="2.31519" x2="35.9557" y2="35.6848" gradientUnits="userSpaceOnUse">
<stop stop-color="#97C5FF"/>
<stop offset="1" stop-color="#0F7AFF"/>
</linearGradient>
</defs>
</svg>
