<svg width="73" height="57" viewBox="0 0 73 57" fill="none" xmlns="http://www.w3.org/2000/svg">
<g opacity="0.5">
<ellipse cx="36" cy="52.5" rx="14" ry="4.5" fill="#D1E6FF"/>
<path d="M49.75 52.5C49.75 53.0079 49.4296 53.535 48.7485 54.0526C48.0714 54.5672 47.0757 55.0413 45.823 55.444C43.3203 56.2484 39.8473 56.75 36 56.75C32.1527 56.75 28.6797 56.2484 26.177 55.444C24.9243 55.0413 23.9286 54.5672 23.2515 54.0526C22.5704 53.535 22.25 53.0079 22.25 52.5C22.25 51.9921 22.5704 51.465 23.2515 50.9474C23.9286 50.4328 24.9243 49.9587 26.177 49.556C28.6797 48.7516 32.1527 48.25 36 48.25C39.8473 48.25 43.3203 48.7516 45.823 49.556C47.0757 49.9587 48.0714 50.4328 48.7485 50.9474C49.4296 51.465 49.75 51.9921 49.75 52.5Z" stroke="#0060D8" stroke-opacity="0.15" stroke-width="0.5"/>
</g>
<ellipse cx="36.5" cy="44" rx="22.5" ry="7" fill="url(#paint0_linear_97_249)"/>
<path d="M58.65 44C58.65 44.8026 58.1264 45.6322 57.0245 46.4428C55.9296 47.2481 54.3228 47.9881 52.3059 48.6155C48.2763 49.8692 42.688 50.65 36.5 50.65C30.312 50.65 24.7237 49.8692 20.6941 48.6155C18.6772 47.9881 17.0704 47.2481 15.9755 46.4428C14.8736 45.6322 14.35 44.8026 14.35 44C14.35 43.1974 14.8736 42.3678 15.9755 41.5572C17.0704 40.7519 18.6772 40.0119 20.6941 39.3845C24.7237 38.1308 30.312 37.35 36.5 37.35C42.688 37.35 48.2763 38.1308 52.3059 39.3845C54.3228 40.0119 55.9296 40.7519 57.0245 41.5572C58.1264 42.3678 58.65 43.1974 58.65 44Z" stroke="url(#paint1_linear_97_249)" stroke-opacity="0.14" stroke-width="0.7"/>
<ellipse cx="36.5" cy="34" rx="26.5" ry="9" fill="url(#paint2_linear_97_249)"/>
<path d="M62.65 34C62.65 35.0923 61.9987 36.1861 60.6984 37.2303C59.4012 38.2718 57.5028 39.2253 55.1258 40.0326C50.3753 41.6459 43.7901 42.65 36.5 42.65C29.2099 42.65 22.6247 41.6459 17.8742 40.0326C15.4972 39.2253 13.5988 38.2718 12.3016 37.2303C11.0013 36.1861 10.35 35.0923 10.35 34C10.35 32.9077 11.0013 31.8139 12.3016 30.7697C13.5988 29.7282 15.4972 28.7747 17.8742 27.9674C22.6247 26.3541 29.2099 25.35 36.5 25.35C43.7901 25.35 50.3753 26.3541 55.1258 27.9674C57.5028 28.7747 59.4012 29.7282 60.6984 30.7697C61.9987 31.8139 62.65 32.9077 62.65 34Z" stroke="url(#paint3_linear_97_249)" stroke-opacity="0.36" stroke-width="0.7"/>
<path d="M73 0H0L10 34C10 38.9706 21.8645 43 36.5 43C51.1355 43 63 38.9706 63 34L73 0Z" fill="url(#paint4_linear_97_249)" fill-opacity="0.25"/>
<path d="M49.4313 22.975H47.4125V27.4375C47.4125 27.7563 47.2 27.9688 46.8813 27.9688C46.5625 27.9688 46.35 27.7563 46.35 27.4375V22.975H44.7563V26.2688C44.7563 26.5875 44.5438 26.8 44.225 26.8C43.9063 26.8 43.6938 26.5875 43.6938 26.2688V22.975H42.1V27.4375C42.1 27.7563 41.8875 27.9688 41.5688 27.9688C41.25 27.9688 41.0375 27.7563 41.0375 27.4375V22.975H39.125V26.2688C39.125 26.5875 38.9125 26.8 38.5938 26.8C38.275 26.8 38.0625 26.5875 38.0625 26.2688V22.975H36.4688V27.4375C36.4688 27.7563 36.2563 27.9688 35.9375 27.9688C35.6188 27.9688 35.4063 27.7563 35.4063 27.4375V22.975H34.1313V21.3813H29.2438C28.925 21.3813 28.7125 21.1688 28.7125 20.85C28.7125 20.5313 28.925 20.3188 29.2438 20.3188H34.025V18.725H30.5188C30.2 18.725 29.9875 18.5125 29.9875 18.1938C29.9875 17.875 30.2 17.6625 30.5188 17.6625H34.025V16.0688H29.2438C28.925 16.0688 28.7125 15.8563 28.7125 15.5375C28.7125 15.2188 28.925 15.0063 29.2438 15.0063H34.025V13.0938H30.5188C30.2 13.0938 29.8813 12.8813 29.8813 12.5625C29.8813 12.2438 30.0938 12.0313 30.4125 12.0313H33.9188V10.4375H29.2438C28.925 10.4375 28.7125 10.1188 28.7125 9.80005C28.7125 9.4813 28.925 9.2688 29.2438 9.2688H34.025V7.5688C34.025 7.03755 33.6 6.61255 33.0688 6.61255H24.5688C24.0375 6.61255 23.6125 7.03755 23.6125 7.5688V32.5375C23.6125 33.0688 24.0375 33.4938 24.5688 33.4938H49.5375C50.0688 33.4938 50.4938 33.0688 50.4938 32.5375V24.0375C50.3876 23.4 49.9626 22.975 49.4313 22.975Z" fill="url(#paint5_linear_97_249)"/>
<defs>
<linearGradient id="paint0_linear_97_249" x1="37.5" y1="51" x2="37.5" y2="39.5" gradientUnits="userSpaceOnUse">
<stop stop-color="#E1EEFF"/>
<stop offset="1" stop-color="#E1EEFF" stop-opacity="0.4"/>
</linearGradient>
<linearGradient id="paint1_linear_97_249" x1="37.5" y1="51" x2="37.5" y2="37" gradientUnits="userSpaceOnUse">
<stop stop-color="#0060D8"/>
<stop offset="1" stop-color="#0060D8" stop-opacity="0.1"/>
</linearGradient>
<linearGradient id="paint2_linear_97_249" x1="36.5" y1="25" x2="36.5" y2="43" gradientUnits="userSpaceOnUse">
<stop stop-color="#EBF4FF"/>
<stop offset="1" stop-color="#D1E6FF"/>
</linearGradient>
<linearGradient id="paint3_linear_97_249" x1="36.5" y1="25" x2="36.5" y2="43" gradientUnits="userSpaceOnUse">
<stop stop-color="#0060D8" stop-opacity="0"/>
<stop offset="1" stop-color="#0060D8"/>
</linearGradient>
<linearGradient id="paint4_linear_97_249" x1="36.5" y1="0" x2="36.5" y2="43" gradientUnits="userSpaceOnUse">
<stop stop-color="#8DE1FF" stop-opacity="0"/>
<stop offset="1" stop-color="#8DE1FF"/>
</linearGradient>
<linearGradient id="paint5_linear_97_249" x1="37.0532" y1="6.61255" x2="37.0532" y2="33.4938" gradientUnits="userSpaceOnUse">
<stop stop-color="#97C5FF"/>
<stop offset="1" stop-color="#0F7AFF"/>
</linearGradient>
</defs>
</svg>
