<svg width="73" height="57" viewBox="0 0 73 57" fill="none" xmlns="http://www.w3.org/2000/svg">
<g opacity="0.5">
<ellipse cx="36" cy="52.5" rx="14" ry="4.5" fill="#D1E6FF"/>
<path d="M49.75 52.5C49.75 53.0079 49.4296 53.535 48.7485 54.0526C48.0714 54.5672 47.0757 55.0413 45.823 55.444C43.3203 56.2484 39.8473 56.75 36 56.75C32.1527 56.75 28.6797 56.2484 26.177 55.444C24.9243 55.0413 23.9286 54.5672 23.2515 54.0526C22.5704 53.535 22.25 53.0079 22.25 52.5C22.25 51.9921 22.5704 51.465 23.2515 50.9474C23.9286 50.4328 24.9243 49.9587 26.177 49.556C28.6797 48.7516 32.1527 48.25 36 48.25C39.8473 48.25 43.3203 48.7516 45.823 49.556C47.0757 49.9587 48.0714 50.4328 48.7485 50.9474C49.4296 51.465 49.75 51.9921 49.75 52.5Z" stroke="#0060D8" stroke-opacity="0.15" stroke-width="0.5"/>
</g>
<ellipse cx="36.5" cy="44" rx="22.5" ry="7" fill="url(#paint0_linear_97_233)"/>
<path d="M58.65 44C58.65 44.8026 58.1264 45.6322 57.0245 46.4428C55.9296 47.2481 54.3228 47.9881 52.3059 48.6155C48.2763 49.8692 42.688 50.65 36.5 50.65C30.312 50.65 24.7237 49.8692 20.6941 48.6155C18.6772 47.9881 17.0704 47.2481 15.9755 46.4428C14.8736 45.6322 14.35 44.8026 14.35 44C14.35 43.1974 14.8736 42.3678 15.9755 41.5572C17.0704 40.7519 18.6772 40.0119 20.6941 39.3845C24.7237 38.1308 30.312 37.35 36.5 37.35C42.688 37.35 48.2763 38.1308 52.3059 39.3845C54.3228 40.0119 55.9296 40.7519 57.0245 41.5572C58.1264 42.3678 58.65 43.1974 58.65 44Z" stroke="url(#paint1_linear_97_233)" stroke-opacity="0.14" stroke-width="0.7"/>
<ellipse cx="36.5" cy="34" rx="26.5" ry="9" fill="url(#paint2_linear_97_233)"/>
<path d="M62.65 34C62.65 35.0923 61.9987 36.1861 60.6984 37.2303C59.4012 38.2718 57.5028 39.2253 55.1258 40.0326C50.3753 41.6459 43.7901 42.65 36.5 42.65C29.2099 42.65 22.6247 41.6459 17.8742 40.0326C15.4972 39.2253 13.5988 38.2718 12.3016 37.2303C11.0013 36.1861 10.35 35.0923 10.35 34C10.35 32.9077 11.0013 31.8139 12.3016 30.7697C13.5988 29.7282 15.4972 28.7747 17.8742 27.9674C22.6247 26.3541 29.2099 25.35 36.5 25.35C43.7901 25.35 50.3753 26.3541 55.1258 27.9674C57.5028 28.7747 59.4012 29.7282 60.6984 30.7697C61.9987 31.8139 62.65 32.9077 62.65 34Z" stroke="url(#paint3_linear_97_233)" stroke-opacity="0.36" stroke-width="0.7"/>
<path d="M73 0H0L10 34C10 38.9706 21.8645 43 36.5 43C51.1355 43 63 38.9706 63 34L73 0Z" fill="url(#paint4_linear_97_233)" fill-opacity="0.25"/>
<path d="M49.6667 18.6667H24.3333V28.0001H49.6667V18.6667Z" fill="url(#paint5_linear_97_233)"/>
<path fill-rule="evenodd" clip-rule="evenodd" d="M23 18.6667C23 17.9304 23.597 17.3334 24.3333 17.3334H49.6667C50.403 17.3334 51 17.9304 51 18.6667V28.0001C51 28.7365 50.403 29.3334 49.6667 29.3334H24.3333C23.597 29.3334 23 28.7365 23 28.0001V18.6667ZM25.6667 20.0001V26.6667H48.3333V20.0001H25.6667Z" fill="url(#paint6_linear_97_233)"/>
<path d="M49.6667 4.00008H24.3333V13.3334H49.6667V4.00008Z" fill="url(#paint7_linear_97_233)"/>
<path fill-rule="evenodd" clip-rule="evenodd" d="M23 4.00008C23 3.2637 23.597 2.66675 24.3333 2.66675H49.6667C50.403 2.66675 51 3.2637 51 4.00008V13.3334C51 14.0698 50.403 14.6667 49.6667 14.6667H24.3333C23.597 14.6667 23 14.0698 23 13.3334V4.00008ZM25.6667 5.33341V12.0001H48.3333V5.33341H25.6667Z" fill="url(#paint8_linear_97_233)"/>
<path d="M31 8.66659C31 7.93021 30.4031 7.33325 29.6667 7.33325C28.9303 7.33325 28.3334 7.93021 28.3334 8.66659C28.3334 9.40297 28.9303 9.99992 29.6667 9.99992C30.4031 9.99992 31 9.40297 31 8.66659Z" fill="white"/>
<path d="M31 23.3333C31 22.597 30.4031 22 29.6667 22C28.9303 22 28.3334 22.597 28.3334 23.3333C28.3334 24.0697 28.9303 24.6667 29.6667 24.6667C30.4031 24.6667 31 24.0697 31 23.3333Z" fill="white"/>
<path d="M36.3333 8.66659C36.3333 7.93021 35.7363 7.33325 35 7.33325C34.2636 7.33325 33.6666 7.93021 33.6666 8.66659C33.6666 9.40297 34.2636 9.99992 35 9.99992C35.7363 9.99992 36.3333 9.40297 36.3333 8.66659Z" fill="white"/>
<path d="M36.3333 23.3333C36.3333 22.597 35.7363 22 35 22C34.2636 22 33.6666 22.597 33.6666 23.3333C33.6666 24.0697 34.2636 24.6667 35 24.6667C35.7363 24.6667 36.3333 24.0697 36.3333 23.3333Z" fill="white"/>
<path d="M41.6666 8.66675H44.3333" stroke="white" stroke-width="2.66667" stroke-linecap="round" stroke-linejoin="round"/>
<path d="M41.6666 23.3333H44.3333" stroke="white" stroke-width="2.66667" stroke-linecap="round" stroke-linejoin="round"/>
<defs>
<linearGradient id="paint0_linear_97_233" x1="37.5" y1="51" x2="37.5" y2="39.5" gradientUnits="userSpaceOnUse">
<stop stop-color="#E1EEFF"/>
<stop offset="1" stop-color="#E1EEFF" stop-opacity="0.4"/>
</linearGradient>
<linearGradient id="paint1_linear_97_233" x1="37.5" y1="51" x2="37.5" y2="37" gradientUnits="userSpaceOnUse">
<stop stop-color="#0060D8"/>
<stop offset="1" stop-color="#0060D8" stop-opacity="0.1"/>
</linearGradient>
<linearGradient id="paint2_linear_97_233" x1="36.5" y1="25" x2="36.5" y2="43" gradientUnits="userSpaceOnUse">
<stop stop-color="#EBF4FF"/>
<stop offset="1" stop-color="#D1E6FF"/>
</linearGradient>
<linearGradient id="paint3_linear_97_233" x1="36.5" y1="25" x2="36.5" y2="43" gradientUnits="userSpaceOnUse">
<stop stop-color="#0060D8" stop-opacity="0"/>
<stop offset="1" stop-color="#0060D8"/>
</linearGradient>
<linearGradient id="paint4_linear_97_233" x1="36.5" y1="0" x2="36.5" y2="43" gradientUnits="userSpaceOnUse">
<stop stop-color="#8DE1FF" stop-opacity="0"/>
<stop offset="1" stop-color="#8DE1FF"/>
</linearGradient>
<linearGradient id="paint5_linear_97_233" x1="37" y1="2.66675" x2="37" y2="29.3334" gradientUnits="userSpaceOnUse">
<stop stop-color="#97C5FF"/>
<stop offset="1" stop-color="#0F7AFF"/>
</linearGradient>
<linearGradient id="paint6_linear_97_233" x1="37" y1="2.66675" x2="37" y2="29.3334" gradientUnits="userSpaceOnUse">
<stop stop-color="#97C5FF"/>
<stop offset="1" stop-color="#0F7AFF"/>
</linearGradient>
<linearGradient id="paint7_linear_97_233" x1="37" y1="2.66675" x2="37" y2="29.3334" gradientUnits="userSpaceOnUse">
<stop stop-color="#97C5FF"/>
<stop offset="1" stop-color="#0F7AFF"/>
</linearGradient>
<linearGradient id="paint8_linear_97_233" x1="37" y1="2.66675" x2="37" y2="29.3334" gradientUnits="userSpaceOnUse">
<stop stop-color="#97C5FF"/>
<stop offset="1" stop-color="#0F7AFF"/>
</linearGradient>
</defs>
</svg>
