<svg width="26" height="26" viewBox="0 0 26 26" fill="none" xmlns="http://www.w3.org/2000/svg">
<path d="M12.8781 13.6419C10.1221 13.6419 7.88773 11.3669 7.88773 8.56213C7.88773 5.75575 10.1221 3.48237 12.8781 3.48237C15.6341 3.48237 17.8685 5.75738 17.8685 8.56213C17.8669 11.3685 15.6341 13.6419 12.8781 13.6419ZM16.2906 14.5714C17.3316 13.9526 18.1931 13.073 18.7902 12.0194C19.3872 10.9658 19.6991 9.77473 19.695 8.56375C19.695 4.732 16.6416 1.625 12.8781 1.625C9.1146 1.625 6.0596 4.732 6.0596 8.56375C6.0596 11.1719 7.47335 13.4436 9.56473 14.6283C6.12623 16.0193 3.6936 19.4383 3.6936 23.4341C3.6936 23.9541 4.10798 24.3766 4.61985 24.3766C5.1301 24.3766 5.5461 23.9541 5.5461 23.4341C5.55098 19.2449 8.88873 15.8503 13.0081 15.8503C17.0787 15.8503 20.3889 19.1701 20.4669 23.2944C20.4455 23.4274 20.4532 23.5634 20.4894 23.6932C20.5256 23.8229 20.5894 23.9433 20.6764 24.0461C20.7635 24.1489 20.8717 24.2317 20.9937 24.2887C21.1157 24.3458 21.2487 24.3757 21.3834 24.3766C21.8936 24.3766 22.3096 23.9541 22.3096 23.4341C22.3064 19.3814 19.8055 15.9234 16.2906 14.5714Z" fill="#0060D8"/>
</svg>
