<svg width="207" height="239" viewBox="0 0 207 239" fill="none" xmlns="http://www.w3.org/2000/svg">
<g clip-path="url(#clip0_97_812)">
<circle cx="28.9428" cy="117.764" r="103.764" stroke="url(#paint0_linear_97_812)" stroke-width="2"/>
<circle cx="28.9428" cy="117.353" r="86.3535" stroke="url(#paint1_linear_97_812)" stroke-width="2" stroke-dasharray="4 4"/>
<ellipse cx="33" cy="144" rx="24" ry="10" fill="#7BB6FF" fill-opacity="0.42"/>
<path d="M91 34H184" stroke="url(#paint2_linear_97_812)" stroke-width="2" stroke-linecap="round" stroke-dasharray="4 4"/>
<circle cx="188" cy="34" r="4" fill="#EDF5FC" stroke="#0061DB" stroke-width="2"/>
<path d="M130 90H184" stroke="url(#paint3_linear_97_812)" stroke-width="2" stroke-linecap="round" stroke-dasharray="4 4"/>
<circle cx="188" cy="90" r="4" fill="#EDF5FC" stroke="#0061DB" stroke-width="2"/>
<path d="M130 146H184" stroke="url(#paint4_linear_97_812)" stroke-width="2" stroke-linecap="round" stroke-dasharray="4 4"/>
<circle cx="188" cy="146" r="4" fill="#EDF5FC" stroke="#0061DB" stroke-width="2"/>
<path d="M93 202H184" stroke="url(#paint5_linear_97_812)" stroke-width="2" stroke-linecap="round" stroke-dasharray="4 4"/>
<circle cx="188" cy="202" r="4" fill="#EDF5FC" stroke="#0061DB" stroke-width="2"/>
<path d="M33.1899 85.038C33.2819 85.038 33.3969 84.992 33.5349 84.9C33.8109 84.716 34.1789 84.394 34.6389 83.934C35.1909 83.428 35.7429 83.06 36.2949 82.83C36.8469 82.6 37.5829 82.669 38.5029 83.037C38.9629 83.175 39.3309 83.3705 39.6069 83.6235C39.8829 83.8765 40.1474 84.118 40.4004 84.348C40.6534 84.578 40.9294 84.7735 41.2284 84.9345C41.5274 85.0955 41.9069 85.176 42.3669 85.176C42.8269 85.176 43.2179 85.107 43.5399 84.969C43.8619 84.831 44.1724 84.7045 44.4714 84.5895C44.7704 84.4745 45.0694 84.394 45.3684 84.348C45.6674 84.302 46.0239 84.348 46.4379 84.486C46.8979 84.67 47.2084 84.9345 47.3694 85.2795C47.5304 85.6245 47.5764 85.981 47.5074 86.349C47.4384 86.717 47.2774 87.085 47.0244 87.453C46.7714 87.821 46.4609 88.12 46.0929 88.35C45.2189 88.902 44.5519 89.4655 44.0919 90.0405C43.6319 90.6155 43.1719 91.225 42.7119 91.869C42.4819 92.191 42.2289 92.559 41.9529 92.973C41.6769 93.387 41.4239 93.801 41.1939 94.215C40.9179 94.721 40.6189 95.204 40.2969 95.664H26.0139C25.6919 95.112 25.3699 94.583 25.0479 94.077C24.7719 93.617 24.4729 93.157 24.1509 92.697C23.8289 92.237 23.5529 91.823 23.3229 91.455C22.8629 90.765 22.3454 90.1555 21.7704 89.6265C21.1954 89.0975 20.6319 88.626 20.0799 88.212C19.4819 87.798 19.0679 87.2345 18.8379 86.5215C18.6079 85.8085 18.8149 85.199 19.4589 84.693C19.7809 84.463 20.1489 84.371 20.5629 84.417C20.9769 84.463 21.4139 84.555 21.8739 84.693C22.3339 84.831 22.7824 84.969 23.2194 85.107C23.6564 85.245 24.0589 85.268 24.4269 85.176C25.0709 85.038 25.5539 84.7965 25.8759 84.4515C26.1979 84.1065 26.7499 83.681 27.5319 83.175C28.1299 82.807 28.7969 82.6805 29.5329 82.7955C30.2689 82.9105 30.8209 83.152 31.1889 83.52C31.3729 83.75 31.5684 83.9455 31.7754 84.1065C31.9824 84.2675 32.2009 84.417 32.4309 84.555C32.6609 84.739 32.9139 84.9 33.1899 85.038ZM40.9869 98.838C41.5389 99.574 42.2289 100.379 43.0569 101.253C43.7469 102.035 44.5979 102.92 45.6099 103.909C46.6219 104.898 47.7949 105.945 49.1289 107.049C50.2329 108.015 51.3714 109.153 52.5444 110.464C53.7174 111.775 54.7409 113.305 55.6149 115.053C56.4889 116.801 57.0984 118.813 57.4434 121.09C57.7884 123.367 57.7309 125.909 57.2709 128.715C56.8569 131.015 56.0404 133.188 54.8214 135.235C53.6024 137.282 51.9809 139.065 49.9569 140.583C47.9329 142.101 45.5294 143.308 42.7464 144.205C39.9634 145.102 36.8009 145.551 33.2589 145.551C29.6249 145.551 26.4049 145.033 23.5989 143.998C20.7929 142.963 18.4124 141.618 16.4574 139.962C14.5024 138.306 12.9499 136.454 11.7999 134.407C10.6499 132.36 9.89093 130.325 9.52293 128.301C9.10893 126.047 9.05143 123.885 9.35043 121.815C9.64943 119.745 10.1899 117.801 10.9719 115.984C11.7539 114.167 12.7314 112.5 13.9044 110.982C15.0774 109.464 16.3539 108.107 17.7339 106.911C18.9299 105.853 20.0109 104.852 20.9769 103.909C21.9429 102.966 22.7479 102.104 23.3919 101.322C24.1739 100.448 24.8639 99.62 25.4619 98.838H40.9869ZM33.6729 120.021L31.8099 118.158L30.3609 116.709C29.9009 116.249 29.5789 115.904 29.3949 115.674C29.0269 115.352 28.5439 115.087 27.9459 114.88C27.3479 114.673 26.8419 114.8 26.4279 115.26C26.0599 115.766 25.9679 116.26 26.1519 116.743C26.3359 117.226 26.5429 117.606 26.7729 117.882L27.8079 118.848C28.3139 119.4 28.8659 119.998 29.4639 120.642C30.1539 121.378 30.9129 122.16 31.7409 122.988L31.6719 124.437H26.9799C26.5659 124.437 26.2094 124.598 25.9104 124.92C25.6114 125.242 25.4619 125.587 25.4619 125.955C25.4619 126.323 25.5999 126.645 25.8759 126.921C26.1519 127.197 26.5199 127.335 26.9799 127.335H31.6719V129.75H26.9799C26.5659 129.75 26.2094 129.876 25.9104 130.129C25.6114 130.382 25.4619 130.716 25.4619 131.13C25.4159 131.498 25.5424 131.808 25.8414 132.061C26.1404 132.314 26.5199 132.441 26.9799 132.441H31.6719V133.821C31.7179 134.465 31.9249 134.913 32.2929 135.166C32.6609 135.419 33.1209 135.546 33.6729 135.546C34.2249 135.592 34.6734 135.419 35.0184 135.028C35.3634 134.637 35.5359 134.235 35.5359 133.821V132.441H40.3659C40.8259 132.441 41.2054 132.337 41.5044 132.13C41.8034 131.923 41.9299 131.59 41.8839 131.13C41.8839 130.164 41.2399 129.681 39.9519 129.681H35.5359L35.6049 127.335L40.0899 127.266C40.7339 127.312 41.1939 127.185 41.4699 126.886C41.7459 126.587 41.8839 126.231 41.8839 125.817C41.8839 125.449 41.7344 125.115 41.4354 124.816C41.1364 124.517 40.6649 124.368 40.0209 124.368H35.5359V123.057C36.3179 122.321 37.0309 121.608 37.6749 120.918C38.2269 120.366 38.7789 119.802 39.3309 119.227C39.8829 118.652 40.2969 118.25 40.5729 118.02C41.6309 117.1 41.8609 116.295 41.2629 115.605C40.9409 115.191 40.5269 114.984 40.0209 114.984C39.5149 114.984 39.0549 115.168 38.6409 115.536C38.4109 115.72 38.0199 116.053 37.4679 116.536C36.9159 117.019 36.3639 117.514 35.8119 118.02C35.1679 118.618 34.4549 119.285 33.6729 120.021Z" fill="url(#paint6_linear_97_812)"/>
</g>
<defs>
<linearGradient id="paint0_linear_97_812" x1="134" y1="108.879" x2="-3" y2="109.879" gradientUnits="userSpaceOnUse">
<stop stop-color="#358FFF"/>
<stop offset="0.731205" stop-color="#358FFF" stop-opacity="0.09"/>
<stop offset="1" stop-color="#358FFF" stop-opacity="0"/>
</linearGradient>
<linearGradient id="paint1_linear_97_812" x1="116.541" y1="109.945" x2="2.30855" y2="110.779" gradientUnits="userSpaceOnUse">
<stop stop-color="#358FFF"/>
<stop offset="0.7332" stop-color="#358FFF" stop-opacity="0.12"/>
<stop offset="1" stop-color="#358FFF" stop-opacity="0"/>
</linearGradient>
<linearGradient id="paint2_linear_97_812" x1="91" y1="34.5" x2="184" y2="34.5" gradientUnits="userSpaceOnUse">
<stop stop-color="#358FFF" stop-opacity="0.1"/>
<stop offset="1" stop-color="#358FFF"/>
</linearGradient>
<linearGradient id="paint3_linear_97_812" x1="130" y1="90.5" x2="184" y2="90.5" gradientUnits="userSpaceOnUse">
<stop stop-color="#358FFF" stop-opacity="0.1"/>
<stop offset="1" stop-color="#358FFF"/>
</linearGradient>
<linearGradient id="paint4_linear_97_812" x1="130" y1="146.5" x2="184" y2="146.5" gradientUnits="userSpaceOnUse">
<stop stop-color="#358FFF" stop-opacity="0.1"/>
<stop offset="1" stop-color="#358FFF"/>
</linearGradient>
<linearGradient id="paint5_linear_97_812" x1="93" y1="202.5" x2="184" y2="202.5" gradientUnits="userSpaceOnUse">
<stop stop-color="#358FFF" stop-opacity="0.1"/>
<stop offset="1" stop-color="#358FFF"/>
</linearGradient>
<linearGradient id="paint6_linear_97_812" x1="33.4138" y1="82.6973" x2="33.4138" y2="145.551" gradientUnits="userSpaceOnUse">
<stop stop-color="#97C5FF"/>
<stop offset="1" stop-color="#0F7AFF"/>
</linearGradient>
<clipPath id="clip0_97_812">
<rect width="207" height="239" fill="white"/>
</clipPath>
</defs>
</svg>
